<svg height="64" preserveAspectRatio="none" viewBox="0 0 64 64" width="64" xmlns="http://www.w3.org/2000/svg"><path d="m35.1533012 58.7294998c-8.1123009 0-12.2119007-4.2344017-13.4697018-6.0469017-3.289999-4.7440987-6.9638996-12.1688995-6.9638996-12.1688995s-3.8281001-4.2538986-4.8984098-5.5322991c-1.07129-1.2783012 2.6045103-5.4042988 7.1172094-.9589005 3.3164005 3.2666016 3.7109013 4.2714005 3.7109013 4.2714005l3.1830997-.7089005-.0834999-4.25s-1.9120998-13.0976982-2.830101-15.5468998c-.9188995-2.4482993-2.1854992-6.9638995 1.4707013-6.7343988 3.6562996.2294998 4.9580994 6.5819998 4.9580994 6.5819998s2.4295998 9.6075001 2.5058002 12.2861996l1.5312996-.4785004s-.2665997-6.3008003-.5928001-10.5068989c-.3272-4.2060003-.8437997-9.6435003-1.2255994-11.4804005-.3817997-1.8369999 3.1392002-3.8262 4.8994007 0 1.7598 3.8271003 1.7616997 10.4090996 1.7616997 10.4090996l1.0410995 11.3194008 1.8456993.2909985s1.4794998-8.2978992 1.5507011-11.3808994c.0704002-3.0830002.9179993-7.5760994 1.0704002-9.3368998.1532974-1.7607002 3.8270988-.7646003 4.5155983 2.5254002.6893997 3.2909994-.6884995 7.7294989-.6884995 7.7294989l-1.2616997 11.9365005 1.3192978 1.0517998c2.8574028-7.6523991 2.5225029-6.4727001 3.1192017-9.9678001.5360985-3.1376991 1.4150009-5.7792988 1.6445007-7.1571989.2294998-1.3780003 3.9785004-.6133003 3.9804993 3.2137995.0009003 4.9747009-3.711998 17.602602-3.711998 17.602602s.344799 5.6649971-.1152 9.2616997c-.4590034 3.5956993-1.2646027 7.1395988-2.7549019 9.3358994-2.2265013 3.2822993-4.8983992 4.4394991-12.6288985 4.4394991z" fill="#ba713a"/><g fill="#7c3f16"><path d="m23.5844994 34.6161995s-1.1269989-7.5546989.6015015-5.2216988c1.7294998 2.3339996 2.2950001 4.5694008 2.2950001 4.5694008s-1.0528012 5.7518997-2.8965016.652298z"/><path d="m34.7373009 41.8339996s-.2626991-4.0859985-.8721008-7.7294998c.0625-.0625.0996017-.1064987.0996017-.1064987s-.0781021-6.0087013-1.1738014-7.3740005c-.6240005-.7772999-1.2192001.4853992-1.5277996 2.1182003-.2080002.2733993-.2554017.8065986-.1909008 1.5028991-.0533009.7852001-.0307999 1.5440006.0956993 2.1143017.2265015 1.0194969.5223999 1.6180992.8363991 1.9510994 1.0942001 3.5888977 2.7329025 7.5234985 2.7329025 7.5234985z"/><path d="m38.1591988 31.4599991s.6846008-5.3466988 2.0068016-5.3007984c1.3213005.044899 1.4883003 6.3719997 1.4883003 6.3719997s-3.2196999 1.5878983-3.4951019-1.0712013z"/><path d="m45.1982002 32.8398018s1.6367989-3.5937023 2.3721008-3.2724018c.7343979.3213005-.7607002 5.5077991-.7607002 5.5077991s-2.357502 1.9179993-1.6114006-2.2353973z"/><path d="m49.8485985 48.9443016c-1.1483994 1.8251991-3.5702972 8.3964996-13.5956993 8.024498-10.0243988-.3721008-9.1190987-4.9737015-11.5760994-5.8154984-2.4570999-.8428001-4.9834003-2.5263023-4.9834003-2.5263023s2.7567997 10.0263023 17.1826 10.1025009c12.5898017.1523018 12.972599-9.7851982 12.972599-9.7851982z"/></g><path d="m35.1533012 59.3731003c-9.1470013 0-13.2656021-5.267601-13.9985008-6.3232994-3.0962009-4.4639015-6.5630007-11.3516006-6.9722004-12.1709023-.5038996-.559597-3.8491001-4.2831993-4.8549604-5.4843979-.4023495-.4804001-.4457998-1.1893997-.1157293-1.8964996.49512-1.0605011 1.8119898-2.1298008 3.6376896-2.1298008 1.0542002 0 2.6978006.3808002 4.5405006 2.1952991 2.2178001 2.1845016 3.1709003 3.392601 3.5761986 4l2.2124004-.4921989-.0732002-3.7236023c-.0126991-.0497971-1.9057999-12.9765987-2.7895985-15.3330975-1.1714001-3.1220007-1.3345013-5.3271008-.4844017-6.5537004.3599014-.5195007 1.1123009-1.1347008 2.5987015-1.0497999 4.1005993.2577991 5.4906998 6.8164005 5.5482998 7.094799.0849991.3348999 2.0546989 8.1464005 2.4512005 11.5615005l.289999-.0907993c-.0697994-1.5664005-.3008003-6.5235004-.5692997-9.9903011-.3442002-4.4217996-.8530007-9.6610994-1.2143994-11.3993993-.1313-.6328001.053299-1.3164001.5073986-1.8740001.5531998-.6797004 1.4126015-1.0859003 2.2988014-1.0859003.7954006 0 2.2831974.3320003 3.3085995 2.5605001 1.7977982 3.9102001 1.8203011 10.4022999 1.8203011 10.6777l.9921989 10.7618008.7256012.1141987c.3417969-1.9794998 1.3739967-8.1483994 1.4325981-10.6611004.0469017-2.0644989.4277-4.692399.7334023-6.8036995.1552963-1.0674.2880974-1.9882994.3388977-2.5742998.0770988-.8788995.7440987-1.4471997 1.7010994-1.4471997 1.5732994 0 3.5830002 1.4902 4.0860023 3.8964996.6786995 3.2382002-.5108032 7.4082012-.6846008 7.9902l-1.2178001 11.5244007.3495979.2792988.6582031-1.7557983c1.6269989-4.3331013 1.6269989-4.3331013 1.9902992-6.5040016l.1278992-.7606983c.3241997-1.8965015.7685013-3.6016006 1.125-4.9717007.2313995-.887701.4315987-1.6542997.5195007-2.1836004.1181984-.7129002.7490005-1.1737995 1.6054993-1.1737995 1.472599 0 3.6523018 1.4277 3.6533012 4.4940996.0009995 4.8213005-3.3193016 16.3505993-3.7060013 17.6768017.0467987.8407974.3055992 5.8915977-.1259995 9.2694969-.5713005 4.4746017-1.5069008 7.6201019-2.8604012 9.615303-2.4549978 3.6190987-5.5302008 4.7216988-13.1620978 4.7216988zm-22.3037014-26.7178002c-1.2529001 0-2.1591997.7187004-2.4707003 1.3876991-.1239996.2656021-.1201.4580002-.0643997.5254021 1.0511999 1.2547989 4.8457003 5.472599 4.8837004 5.5145988.0390997.0439987.0723.0928001.0986996.1455002.0366001.0732994 3.6909008 7.4375 6.9155006 12.0868988.6688995.9639015 4.4350986 5.7705002 12.9409008 5.7705002 7.9365005 0 10.1464996-1.2821999 12.0956993-4.1571999 1.2206993-1.7987976 2.1123009-4.8456993 2.6493988-9.0556984.4473-3.4951019.1142998-9.0858994.1114006-9.1416016-.0048981-.0741997.0038986-.1493988.0253983-.2206993.0361023-.125 3.6865005-12.5956993 3.6855011-17.4209003-.0009995-2.3993998-1.6259995-3.2069998-2.3661995-3.2069998-.1913986 0-.3280983.0508003-.3358994.0985994-.097702.5860004-.2939987 1.3409004-.5429993 2.2968998-.3506012 1.3457012-.7871017 3.0215015-1.1016006 4.8633003l-.1278992.7558994c-.3838005 2.2949009-.4150009 2.3789005-2.0547028 6.7441006l-.9678001 2.585001c-.072197.1932983-.2333984.339798-.4315987.3955002-.1982002.0555992-.4120979.0107002-.5732002-.1171989l-1.3194008-1.0528011c-.1718979-.1367016-.2616997-.3525009-.2392006-.5712013l1.2617035-11.9356003c.0048981-.0419998.0135994-.0829983.0253983-.1229992.0135994-.0429993 1.3203011-4.3223.6738014-7.4073-.392601-1.8739996-1.8936005-2.8730001-2.8262024-2.8730001-.3945007 0-.4091988.1698999-.4179001.2715006-.0537987.6219997-.1904984 1.5604992-.3476982 2.6473999-.3008003 2.0771999-.6758003 4.6620989-.7206993 6.6484995-.0713005 3.0976009-1.5 11.1385994-1.5606003 11.4794998-.0615005.3446999-.3885994.5771008-.7343025.5223999l-1.8456993-.2910004c-.2910004-.0458984-.5136986-.2831993-.5401001-.5761986l-1.0410004-11.3203011c-.0028992-.1229992-.0263977-6.5458994-1.7059975-10.1982002-.5371016-1.1679992-1.2969016-1.811499-2.1387003-1.811499-.4951 0-.9937.2342997-1.3003006.6113-.1221008.1503997-.3169003.4551001-.2451.7997999.3983994 1.9169998.9155006 7.4258003 1.2367992 11.5614996.3237 4.1690006.5917988 10.4668007.594202 10.5293007.0126991.2919998-.172802.5557003-.4511013.6425991l-1.5312996.4775009c-.1919003.0606003-.4018002.0273991-.5659008-.0908012-.1641006-.1171989-.2637005-.3036995-.2695007-.5057983-.0732994-2.5771999-2.4623985-12.0508003-2.4863987-12.1465015-.0185013-.0868988-1.2534008-5.9003992-4.3745003-6.0966997-1.0307007-.0683994-1.3656998.3633003-1.4594994.4980001-.5698013.8223-.3393002 2.7793007.6318989 5.3682003.9316006 2.4853991 2.7861004 15.1426009 2.8647004 15.6796988l.089901 4.330101c.0057983.3065987-.2046013.5741997-.5034008.6405983l-3.1830997.7090034c-.3120995.0682983-.6236-.0987015-.7392998-.392601-.0112-.0224991-.4922009-1.0224991-3.5635014-4.0479012-1.2128993-1.1953009-2.4706994-1.8260993-3.6371995-1.8260993z" fill="#210601"/></svg>