<svg height="64" preserveAspectRatio="none" viewBox="0 0 64 64" width="64" xmlns="http://www.w3.org/2000/svg"><path d="m21.6835995 62.2607002 1.3809013-3.8535004s-3.7862015-1.3818016-5.5596008-3.7421989c-1.7735004-2.360302-6.2875996-6.735302-1.9404001-14.4365005 1.9984999-3.5410004.7967997-8.8125 1.9404001-11.7431011 0 0-1.1240005-7.5977001-1.5321999-11.3477001-.4082002-3.7499991-2.5752001-10.9687992-2.4082002-12.5263992.1668997-1.5566001 4.0371008-3.8906 6.5185003-.8906 2.4815006 2.9999998 3.3057003 10.4062996 3.5186005 12.2031002.2129002 1.7968988 1.6288986 8.6640997 2.7129002 8.8975 1.0838985.2334003 4.0897999 0 4.0897999 0s2.0937004-6.5684013 2.5995979-9.0401001c.5059013-2.4716002 2.1318015-10.7275001 2.0967025-12.3105001-.035202-1.5830001 6.535099-4.75 6.8330002 3.3339999.2977982 8.0830002-1.9696999 9.9844007-1.9696999 9.9844007s-.8711014 7.7860985-1.1348 8.8172989c0 0 5.402298-.8739986 6.652298 3.2872009 0 0 5.0527992.2635994 4.9844017 6.7538986 0 0 .4511986 8.9902-1.3086014 10.7821999 0 0-1.6054001 11.8818016-7.2246017 11.9775009l.8867035 3.9804993z" fill="#ba713a"/><g fill="#7c3f16"><path d="m38.0068016 58.9081993-4.6923027.4844017s10.875-4.0195007 14.2089005-9.6240005c0 0-1.1991997 12.3115005-9.5165978 9.1395988z"/><path d="m17.0224991 37.1309013 2.2783012-10.7754021s-2.4453011-14.5917997-3.0283012-16.6758003c-.5829992-2.0829987-2.7177992-3.9257988-2.4355993-2.6122989s2.6943998 13.6268997 2.8984995 16.3701c.2041015 2.7422009.7147998 11.5849991.2870998 13.6934013z"/><path d="m15.5225 40.2705002s2.6113005 8.8261986 2.1948004 3.0761986.044899-11.8339996.044899-11.8339996z"/><path d="m25.3843002 23.4297009s2.6669998 4.3329983 2 6.8329983.107399 7.2518997-.9463005 4.2509995c-1.0536995-3.0009995-.9701996-2.2509995-1.0536995-3.5009995s-1.6665001-6.3329983 0-7.5829983z"/><path d="m39.9491997 25.5732002s-1.1533012 3.3193989-1.9423981 3.8799c-.7890015.5595989-1.0175018-3.5233994.9716988-5.2733994.2392997.6669999.9706993 1.3934994.9706993 1.3934994z"/></g><path d="m43.8125 63.2645988-23.3535004-.1395988 1.5473004-4.2363014c-1.2933998-.5390968-3.8383007-1.782299-5.2162991-3.6973-.2314014-.3213005-.4780006-.6444969-.7295017-.9735985-2.2557993-2.9511986-5.0633993-6.6240997-1.2821989-14.3134995.9296999-1.8897018 1.0522995-4.2695007 1.1703997-6.5723.0928001-1.8047009.1807003-3.5136013.6630993-4.8935013-.1840992-1.2530003-1.1381989-7.794899-1.5053997-11.1689987-.1917992-1.762701-.8041992-4.405201-1.3446999-6.7363005-.7220993-3.1152-1.1595993-5.0693002-1.0634995-5.9678001.1700001-1.5849001 2.3204002-3.0830002 4.4253006-3.0830002.9609985 0 2.3578987.3037001 3.5562 1.7520001 1.7133999 2.0712998 2.9540997 6.2792997 3.6879997 12.5058002l.0150986.1280003c.2529011 2.1357002 1.4732018 7.3505001 2.1875 8.2059994.1997013.0303001.5737.0634995 1.2442017.0634995.6932983 0 1.4369984-.0351982 1.9277-.0644989.5072994-1.6142006 2-6.4237995 2.4076977-8.4160004.8193016-4.0038996 2.108902-10.8358994 2.0796013-12.1259995-.0068016-.3027.0918007-.7733998.5996017-1.2918999.7080002-.7247006 2.214798-1.5039006 3.8505974-1.5039006 1.1699028 0 2.1650009.4121 2.8768997 1.1914001.972702 1.0644 1.3633003 2.7440999 1.160202 4.9940996-.7373009 8.1963005-2.2421989 15.1854992-2.8584023 17.8223h.1006012c3.0107002 0 5.2011986 1.25 6.097599 3.4510994 1.4717026.3085995 5.2579002 1.6700001 5.1963005 7.5039005.0741997 1.4580002.3506012 8.8535995-1.3514977 11.1259995-.2588005 1.6903992-1.9307022 11.1406021-7.0039024 12.3311005zm-20.9883003-1.7840995 18.9179993.1142006-.8817978-3.9570007 1.0165977-.017601c4.0253029-.0682983 5.9970016-8.1513977 6.4169006-11.259697l.0372009-.2725029.1922989-.1973c1.0381012-1.0565987 1.2519989-6.5770988 1.0723-10.1591988.0586014-5.6815987-4.0253983-5.9589005-4.1991997-5.9676991l-.5830002-.0312996-.1679993-.5586014c-.6884995-2.2919998-2.9286995-2.7723999-4.6865005-2.7723999-.6142998 0-1.0370979.0654011-1.0410004.0664005l-1.2441978.1952991.3106003-1.2196999c.0878983-.3456991 2.1718979-8.5712984 3.0819969-18.6708992.1562996-1.7421999-.097599-3.0313001-.7343979-3.7276001-.3945007-.4326-.9510994-.6513-1.6523018-.6513-1.4081993 0-2.6689987.8408-2.8027 1.1816001.0536995 1.8544998-2.014698 11.9843998-2.1026001 12.4140997-.5098 2.4873009-2.5360985 8.8554001-2.6220989 9.1259003l-.1693993.5312996-.5566006.0430012c-.0557003.0047989-1.3819008.1063995-2.6117992.1063995-.7730007 0-1.3345013-.0400009-1.7164001-.1221008-2.0756016-.4471989-3.3509998-9.5184994-3.3618011-9.6103001l-.0150986-.1288996c-.8672009-7.3555002-2.2832012-10.3915997-3.3189011-11.6436005-.6317997-.7636994-1.3988991-1.1513993-2.2787991-1.1513993-1.5048008 0-2.7256012 1.1241-2.7768011 1.6025999-.0712996.665.5137005 3.1894002 1.0303001 5.4160004.5507002 2.3769999 1.1752005 5.0712996 1.3779001 6.9315996.4018002 3.6914005 1.5170994 11.2402992 1.5282993 11.3164005l.0317001.2167988-.0795002.205101c-.4545994 1.1651001-.5401001 2.8281002-.6308994 4.5898991-.1210995 2.3544998-.2582989 5.0223999-1.3379002 7.2187004-3.3280993 6.7666016-1.0712996 9.7187996 1.1107998 12.5741997.2618008.3428001.5181007.6777992.7583008 1.0117989 1.5508003 2.155201 5.1567993 3.3867035 5.1928997 3.3984032l.8062.2714996z" fill="#210601"/><path d="m38.0059013 59.5546989c-.4307022 0-.795002-.3339996-.8262024-.7705002-.0321999-.4561005.3115005-.8526001.7685013-.8857994l3.8838005-.2762985c.4540977-.0244026.8535004.3125.8857994.7684975.0321999.4561005-.3115005.8526001-.7686005.8858032l-3.8838004.2762985c-.0195008.0009995-.0400009.0019989-.0594979.0019989z" fill="#210601"/></svg>